# xmcd
#
# Track frame offsets:
#	150
#	11830
#	17247
#	23622
#	32850
#	42195
#	52737
#	61975
#	66755
#	78640
#	85380
#	95395
#	112810
#	117727
#	127175
#	133917
#
# Disc length: 1854 seconds
#
# Revision: 1
# Processed by: cddbd v1.4b42PL1 Copyright (c) Steve Scherf et al.
# Submitted via: audiograbber 1.80
#
DISCID=d9073c10
DTITLE=Shirley Temple - On the Good Ship Lollipop
DYEAR=1900
DGENRE=
TTITLE0=On the good ship lollipop
TTITLE1=Polly wolly doodle
TTITLE2=When I`m with you
TTITLE3=Early bird
TTITLE4=At the Codfish
TTITLE5=This is a happy little ditty
TTITLE6=Baby take a bow
TTITLE7=How can I thank you
TTITLE8=Animal crackers in my soup
TTITLE9=On account-a I love you
TTITLE10=You gotta spinach baby
TTITLE11=When I grow up
TTITLE12=Lay-de-o
TTITLE13=That`s what I want for Christmas
TTITLE14=Goodnight my love
TTITLE15=Hey!What did the Bluejay say-
EXTD=
EXTT0=
EXTT1=
EXTT2=
EXTT3=
EXTT4=
EXTT5=
EXTT6=
EXTT7=
EXTT8=
EXTT9=
EXTT10=
EXTT11=
EXTT12=
EXTT13=
EXTT14=
EXTT15=
PLAYORDER=
